<svg id="Layer_1" xmlns="http://www.w3.org/2000/svg" viewBox="0 0 782 782"><style>.st0{fill:#4e7984}</style><g id="Layer_2_1_"><path class="st0" d="M424 50c-13.8 0-25-11.2-25-25s11.2-25 25-25 25 11.2 25 25-11.2 25-25 25zm0-46.2c-11.7 0-21.2 9.5-21.2 21.2s9.5 21.2 21.2 21.2 21.2-9.5 21.2-21.2S435.7 3.8 424 3.8zM20 447c-11 0-20-9-20-20s9-20 20-20 20 9 20 20-9 20-20 20zm0-36.2c-9 0-16.2 7.3-16.2 16.2S11 443.2 20 443.2 36.2 436 36.2 427 29 410.8 20 410.8zM530 489c-8.3 0-15-6.7-15-15s6.7-15 15-15 15 6.7 15 15-6.7 15-15 15zm0-26.2c-6.2 0-11.2 5-11.2 11.2s5 11.2 11.2 11.2 11.2-5 11.2-11.2-5-11.2-11.2-11.2zM762 478c-8.3 0-15-6.7-15-15s6.7-15 15-15 15 6.7 15 15-6.7 15-15 15zm0-26.2c-6.2 0-11.2 5-11.2 11.2s5 11.2 11.2 11.2 11.2-5 11.2-11.2-5-11.2-11.2-11.2zM446.5 629c-6.9 0-12.5-5.6-12.5-12.5s5.6-12.5 12.5-12.5 12.5 5.6 12.5 12.5-5.6 12.5-12.5 12.5zm0-21.2c-4.8 0-8.8 3.9-8.8 8.8s3.9 8.8 8.8 8.8c4.8 0 8.8-3.9 8.8-8.8s-4-8.8-8.8-8.8zM769.5 373c-6.9 0-12.5-5.6-12.5-12.5s5.6-12.5 12.5-12.5 12.5 5.6 12.5 12.5-5.6 12.5-12.5 12.5zm0-21.2c-4.8 0-8.8 3.9-8.8 8.8s3.9 8.8 8.8 8.8 8.8-3.9 8.8-8.8-4-8.8-8.8-8.8zM752.5 522c-6.9 0-12.5-5.6-12.5-12.5s5.6-12.5 12.5-12.5 12.5 5.6 12.5 12.5-5.6 12.5-12.5 12.5zm0-21.2c-4.8 0-8.8 3.9-8.8 8.8s3.9 8.8 8.8 8.8 8.8-3.9 8.8-8.8-4-8.8-8.8-8.8zM153.5 419c-6.9 0-12.5-5.6-12.5-12.5s5.6-12.5 12.5-12.5 12.5 5.6 12.5 12.5-5.6 12.5-12.5 12.5zm0-21.2c-4.8 0-8.8 3.9-8.8 8.8s3.9 8.8 8.8 8.8c4.8 0 8.8-3.9 8.8-8.8s-4-8.8-8.8-8.8zM437.5 104c-6.9 0-12.5-5.6-12.5-12.5S430.6 79 437.5 79 450 84.6 450 91.5s-5.6 12.5-12.5 12.5zm0-21.2c-4.8 0-8.8 3.9-8.8 8.8s3.9 8.8 8.8 8.8c4.8 0 8.8-3.9 8.8-8.8s-4-8.8-8.8-8.8zM529.5 554c-6.9 0-12.5-5.6-12.5-12.5s5.6-12.5 12.5-12.5 12.5 5.6 12.5 12.5-5.6 12.5-12.5 12.5zm0-21.2c-4.8 0-8.8 3.9-8.8 8.8s3.9 8.8 8.8 8.8 8.8-3.9 8.8-8.8-4-8.8-8.8-8.8zM223 87c-13.8 0-25-11.2-25-25s11.2-25 25-25 25 11.2 25 25-11.2 25-25 25zm0-46.2c-11.7 0-21.2 9.5-21.2 21.2s9.5 21.2 21.2 21.2 21.2-9.5 21.2-21.2-9.5-21.2-21.2-21.2zM677 649c-11 0-20-9-20-20s9-20 20-20 20 9 20 20-9 20-20 20zm0-36.2c-9 0-16.2 7.3-16.2 16.2s7.3 16.2 16.2 16.2 16.2-7.3 16.2-16.2-7.2-16.2-16.2-16.2zM52 240c-8.3 0-15-6.7-15-15s6.7-15 15-15 15 6.7 15 15-6.7 15-15 15zm0-26.2c-6.2 0-11.2 5-11.2 11.2s5 11.2 11.2 11.2 11.2-5 11.2-11.2-5-11.2-11.2-11.2zM489 769c-8.3 0-15-6.7-15-15s6.7-15 15-15 15 6.7 15 15-6.7 15-15 15zm0-26.2c-6.2 0-11.2 5-11.2 11.2s5 11.2 11.2 11.2 11.2-5 11.2-11.2-5-11.2-11.2-11.2zM289.5 768c-6.9 0-12.5-5.6-12.5-12.5s5.6-12.5 12.5-12.5 12.5 5.6 12.5 12.5-5.6 12.5-12.5 12.5zm0-21.2c-4.8 0-8.8 3.9-8.8 8.8s3.9 8.8 8.8 8.8 8.8-3.9 8.8-8.8-4-8.8-8.8-8.8zM87.5 629c-6.9 0-12.5-5.6-12.5-12.5S80.6 604 87.5 604s12.5 5.6 12.5 12.5S94.4 629 87.5 629zm0-21.2c-4.8 0-8.8 3.9-8.8 8.8s3.9 8.8 8.8 8.8c4.8 0 8.8-3.9 8.8-8.8s-4-8.8-8.8-8.8zM21.5 491C14.6 491 9 485.4 9 478.5S14.6 466 21.5 466 34 471.6 34 478.5 28.4 491 21.5 491zm0-21.2c-4.8 0-8.8 3.9-8.8 8.8s3.9 8.8 8.8 8.8c4.8 0 8.8-3.9 8.8-8.8s-4-8.8-8.8-8.8zM586.4 235.6H577V230c0-5.2-4.2-9.4-9.4-9.4H462.4c-5.2 0-9.4 4.2-9.4 9.4v5.6h-9.4c-3.1 0-5.6 2.5-5.6 5.6v22.5c0 3.1 2.5 5.6 5.6 5.6h9.4v62c0 3.1 2.5 5.6 5.6 5.6h3.8v9.4c0 3.1 2.5 5.6 5.6 5.6h11.3c3.1 0 5.6-2.5 5.6-5.6V337H545v9.4c0 3.1 2.5 5.6 5.6 5.6H562c3.1 0 5.6-2.5 5.6-5.6V337h3.8c3.1 0 5.6-2.5 5.6-5.6v-62h9.4c3.1 0 5.6-2.5 5.6-5.6v-22.5c0-3.2-2.5-5.7-5.6-5.7zm-133.4 30h-9.4c-1 0-1.9-.8-1.9-1.9v-22.5c0-1 .8-1.9 1.9-1.9h9.4v26.3zm28.2 80.8c0 1-.8 1.9-1.9 1.9H468c-1 0-1.9-.8-1.9-1.9V337h15v9.4h.1zm82.6 0c0 1-.8 1.9-1.9 1.9h-11.3c-1 0-1.9-.8-1.9-1.9V337h15v9.4h.1zm9.4-15.1c0 1-.8 1.9-1.9 1.9H458.7c-1 0-1.9-.8-1.9-1.9V229.9c0-3.1 2.5-5.6 5.6-5.6h105.2c3.1 0 5.6 2.5 5.6 5.6v101.4zm15-67.6c0 1-.8 1.9-1.9 1.9H577v-26.3h9.4c1 0 1.9.8 1.9 1.9v22.5h-.1z"/><path class="st0" d="M563.8 228h-97.7c-3.1 0-5.6 2.5-5.6 5.6V275c0 1 .8 1.9 1.9 1.9h105.2c1 0 1.9-.8 1.9-1.9v-41.3c0-3.1-2.6-5.7-5.7-5.7zm1.9 45.1H553l-7.5-3.8h14.6c1 0 1.9-.8 1.9-1.9s-.8-1.9-1.9-1.9h-37.6c-1 0-1.9.8-1.9 1.9s.8 1.9 1.9 1.9h14.6l7.5 3.8h-44.2l-7.5-3.8h14.6c1 0 1.9-.8 1.9-1.9s-.8-1.9-1.9-1.9h-37.6c-1 0-1.9.8-1.9 1.9s.8 1.9 1.9 1.9h14.6l7.5 3.8h-27.7v-39.4c0-1 .8-1.9 1.9-1.9h97.7c1 0 1.9.8 1.9 1.9l-.1 39.4zM469.9 291.9H560c1 0 1.9-.8 1.9-1.9 0-1-.8-1.9-1.9-1.9h-90.1c-1 0-1.9.8-1.9 1.9s.9 1.9 1.9 1.9zM469.9 299.4H560c1 0 1.9-.8 1.9-1.9 0-1-.8-1.9-1.9-1.9h-90.1c-1 0-1.9.8-1.9 1.9s.9 1.9 1.9 1.9zM469.9 306.9H560c1 0 1.9-.8 1.9-1.9s-.8-1.9-1.9-1.9h-90.1c-1 0-1.9.8-1.9 1.9s.9 1.9 1.9 1.9zM575.1 218.8c1 0 1.9-.8 1.9-1.9v-17.1c0-1-.8-1.9-1.9-1.9H454.9c-1 0-1.9.8-1.9 1.9v17.1c0 1 .8 1.9 1.9 1.9 1 0 1.9-.8 1.9-1.9v-15.2h116.4v15.2c0 1.1.9 1.9 1.9 1.9zM485 310.7h-22.5c-1 0-1.9.8-1.9 1.9v15c0 1 .8 1.9 1.9 1.9H485c1 0 1.9-.8 1.9-1.9v-15c-.1-1.1-.9-1.9-1.9-1.9zm-1.9 15h-18.8v-11.3h18.8v11.3zM567.6 310.7H545c-1 0-1.9.8-1.9 1.9v15c0 1 .8 1.9 1.9 1.9h22.5c1 0 1.9-.8 1.9-1.9v-15c.1-1.1-.8-1.9-1.8-1.9zm-1.9 15h-18.8v-11.3h18.8v11.3zM533.8 314.4h-37.6c-1 0-1.9.8-1.9 1.9v7.5c0 1 .8 1.9 1.9 1.9h37.6c1 0 1.9-.8 1.9-1.9v-7.5c0-1-.9-1.9-1.9-1.9zm-1.9 7.6h-33.8v-3.8h33.8v3.8zM35 515.2v37.6c0 3.1 2.5 5.7 5.7 5.7h11.6c1.1 0 2.1-1 1.8-2.2-.2-1.2-.3-2.3-.3-3.4 0-7.4 4.7-13.6 11.3-16v4.1c-4.4 2.1-7.5 6.6-7.5 11.9 0 7.3 5.9 13.2 13.1 13.2s13.1-5.9 13.1-13.2c0-5.2-3.1-9.8-7.5-11.9v-4.1c6.6 2.3 11.3 8.6 11.3 16 0 1.1-.1 2.2-.3 3.4-.2 1.3.8 2.2 1.8 2.2h30.7c4.8 0 8.8-3.3 9.3-7.7.5-3.8 2.1-7.2 4.8-9.9 1.8-1.8 4-3.1 6.3-3.9v4.1c-4.4 2.1-7.5 6.6-7.5 11.9 0 7.3 5.9 13.2 13.1 13.2 7.2 0 13.1-5.9 13.1-13.2 0-5.2-3.1-9.8-7.5-11.9V537c2.3.8 4.5 2.1 6.3 3.9.7.7 1.9.7 2.7 0 .7-.7.7-1.9 0-2.7-.5-.5-1-.9-1.5-1.3v-16h3.8v43.3c0 1 .8 1.9 1.9 1.9h22.5c1 0 1.9-.8 1.9-1.9 0-1-.8-1.9-1.9-1.9h-20.7v-58.4c0-1-.8-1.9-1.9-1.9-1 0-1.9.8-1.9 1.9v5.7H159v-65.9c0-1-.8-1.9-1.9-1.9h-15c-1 0-1.9.8-1.9 1.9v67l-11.7 11.7-7.1-71c-.1-1-.9-1.7-1.9-1.7H98.9v-9.4c0-3.1-2.5-5.6-5.6-5.6h-1.9V414c0-1-.8-1.9-1.9-1.9-1 0-1.9.8-1.9 1.9v20.7h-1.9c-3.1 0-5.6 2.5-5.6 5.6v9.4h-5.6c-1 0-1.9.8-1.9 1.9v64.8l-20.1-6.7c-.2-.1-.4-.1-.6-.1H40.7c-3.2-.1-5.7 2.5-5.7 5.6zm124-1.9h3.8v3.8H159v-3.8zm-15.1 19v-86.7h3.8v36.2c0 1 .8 1.9 1.9 1.9 1 0 1.9-.8 1.9-1.9v-36.2h3.8v88.9c-3.6-1.9-7.5-2.6-11.4-2.2zm3.8 3.7v3.8c-.6-.1-1.2-.2-1.9-.2-.6 0-1.3.1-1.9.2V536c1.3-.1 2.5-.1 3.8 0zm-1.9 7.4c5.2 0 9.4 4.2 9.4 9.4s-4.2 9.4-9.4 9.4-9.4-4.2-9.4-9.4 4.2-9.4 9.4-9.4zm-50.7-93.7H83.8v-9.4c0-1 .8-1.9 1.9-1.9h7.5c1 0 1.9.8 1.9 1.9v9.4zm23.1 7.5H76.3v-3.8h41.5l.4 3.8zm6.7 67.4h-4.2l-11.1-24.9 3.7-3.7c.7-.7.7-1.9 0-2.7-.7-.7-1.9-.7-2.7 0l-9.2 9.2c-.7.7-.7 1.9 0 2.7.7.7 1.9.7 2.7 0l2.6-2.7 9.8 22H97.3l-5.9-2v-9.3H97c1 0 1.9-.8 1.9-1.9 0-1-.8-1.9-1.9-1.9H83.8v-20.7c0-1-.8-1.9-1.9-1.9-1 0-1.9.8-1.9 1.9v22.6c0 1 .8 1.9 1.9 1.9h5.6v8.1l-11.3-3.8v-56.6h42.2l6.5 63.7zm15.3 0h-8.6l8.6-8.6v8.6zm-69.5 18.8c5.2 0 9.4 4.2 9.4 9.4s-4.2 9.4-9.4 9.4-9.4-4.2-9.4-9.4 4.2-9.4 9.4-9.4zm0-3.8c-.6 0-1.3.1-1.9.2V536c.6-.1 1.2-.1 1.9-.1.6 0 1.3 0 1.9.1v3.8c-.7-.1-1.3-.2-1.9-.2zm-31.9-18.8h3.8v11.3h-3.8v-11.3zm0-5.6c0-1.1.9-1.9 1.9-1.9h10.9l44.8 15c.2.1.4.1.6.1h43.1v4.6c-3.3.9-6.4 2.7-9 5.2-3.3 3.3-5.3 7.5-5.9 12.1-.3 2.5-2.8 4.4-5.6 4.4H91.3c.1-.6.1-1.3.1-1.9 0-11.4-9.3-20.7-20.7-20.7S50 541.4 50 552.8c0 .6 0 1.2.1 1.9h-9.4c-1 0-1.9-.9-1.9-1.9v-16.9h5.6c1 0 1.9-.8 1.9-1.9v-15.1c0-1-.8-1.9-1.9-1.9h-5.6v-1.8z"/><path class="st0" d="M97 547.2h22.5c1 0 1.9.8 1.9 1.9 0 1-.8 1.9-1.9 1.9H97c-1 0-1.9-.8-1.9-1.9s.8-1.9 1.9-1.9zM97 539.6h15c1 0 1.9.8 1.9 1.9 0 1-.8 1.9-1.9 1.9H97c-1 0-1.9-.8-1.9-1.9 0-1 .8-1.9 1.9-1.9zM387.4 75.4c1 .1 2-.6 2.1-1.6.3-2.6.5-5.1.5-7.7 0-34.2-27.8-62-62-62s-62 27.8-62 62c0 15.6 5.9 30.6 16.4 42 .8.8 2 .7 2.7.1.8-.7.8-1.9.1-2.7-9.5-10.3-14.9-23.6-15.4-37.6h28c.1 1.9.2 3.9.4 5.8.1 1 1 1.8 2.1 1.7 1-.1 1.8-1 1.7-2.1-.2-1.8-.3-3.6-.4-5.4h24.5v5.6c0 1 .8 1.9 1.9 1.9s1.9-.8 1.9-1.9v-5.6h24.5c-.1 1.8-.2 3.6-.4 5.4-.1 1 .6 2 1.7 2.1s2-.7 2.1-1.7c.2-2 .3-3.9.4-5.8h28c-.1 1.8-.2 3.6-.4 5.4-.2 1 .6 1.9 1.6 2.1zM322.8 8c-8.1 7.5-14.5 16.6-18.8 26.9-6.3-2.1-12.4-5.2-18.1-9.1 9.4-9.9 22.4-16.5 36.9-17.8zm-25 56.1h-28c.4-13.4 5.4-25.7 13.5-35.4 6 4.2 12.5 7.4 19.3 9.7-3 8.3-4.6 16.9-4.8 25.7zm28.3 0h-24.5c.2-8.4 1.7-16.6 4.6-24.5 6.5 1.9 13.2 2.9 19.9 3.1v21.4zm0-25.2c-6.2-.2-12.5-1.1-18.5-2.8 4.3-10.1 10.5-18.8 18.5-26v28.8zm44-13c-5.7 3.9-11.8 6.9-18.1 9.1-4.4-10.4-10.7-19.4-18.8-26.9 14.4 1.2 27.4 7.8 36.9 17.8zm-40.2-15.8c8 7.2 14.2 16 18.5 26-6.1 1.7-12.3 2.7-18.5 2.8V10.1zm0 54V42.6c6.7-.2 13.4-1.2 19.9-3.1 2.9 7.9 4.5 16.1 4.6 24.5l-24.5.1zm28.2 0c-.1-8.8-1.7-17.4-4.8-25.7 6.7-2.3 13.2-5.6 19.3-9.7 8.1 9.7 13.1 22 13.5 35.4h-28z"/><path class="st0" d="M399.3 82.9c-1.8-2.4-4.6-3.8-7.5-3.8h-88c-4.3 0-8.1 2.9-9.1 7.1l-6.1 24.8v26.3c0 3.1 2.5 5.6 5.6 5.6h1.9v5.6c0 1 .8 1.9 1.9 1.9h14.4c2.1 4.4 6.6 7.5 11.9 7.5 5.2 0 9.7-3.1 11.9-7.5H380c2.1 4.4 6.6 7.5 11.9 7.5 5.2 0 9.7-3.1 11.9-7.5h6.9c5.2 0 9.4-4.2 9.4-9.4v-30c0-.4-.1-.8-.4-1.1l-20.4-27zm-24.4 0h16.9c1.8 0 3.4.8 4.5 2.3l18 24h-39.4V82.9zm-82.6 37.5h3.8v11.3h-3.8v-11.3zm31.9 33.8c-5.2 0-9.4-4.2-9.4-9.4s4.2-9.4 9.4-9.4 9.4 4.2 9.4 9.4-4.2 9.4-9.4 9.4zm47-7.5h-34c.1-.6.2-1.2.2-1.9 0-7.2-5.9-13.1-13.1-13.1s-13.1 5.9-13.1 13.1c0 .6.1 1.3.2 1.9H300V143h5.6c1 0 1.9-.8 1.9-1.9 0-1-.8-1.9-1.9-1.9h-11.3c-1 0-1.9-.8-1.9-1.9v-1.9h5.6c1 0 1.9-.8 1.9-1.9v-15c0-1-.8-1.9-1.9-1.9h-5.7v-5.2l6.1-24.4c.6-2.5 2.9-4.3 5.5-4.3h67.4v64h-.1zm20.6 7.5c-5.2 0-9.4-4.2-9.4-9.4s4.2-9.4 9.4-9.4 9.4 4.2 9.4 9.4-4.2 9.4-9.4 9.4zm24.4-22.5h-3.8v-11.3h3.8v11.3zm0-15h-5.6c-1 0-1.9.8-1.9 1.9v15c0 1 .8 1.9 1.9 1.9h5.6v5.6c0 3.1-2.5 5.6-5.6 5.6h-5.8c.1-.6.2-1.2.2-1.9 0-7.2-5.9-13.1-13.1-13.1s-13.1 5.9-13.1 13.1c0 .6.1 1.3.2 1.9h-3.9v-33.8h41.3v3.8h-.2z"/><path class="st0" d="M380.6 120.4h7.5c1 0 1.9-.8 1.9-1.9 0-1-.8-1.9-1.9-1.9h-7.5c-1 0-1.9.8-1.9 1.9s.8 1.9 1.9 1.9zM497.2 101.2c-.7.7-.7 1.9 0 2.7 2.9 2.9 5.9 3.9 8.6 3.9 3.9 0 7.3-2.1 9.1-3.9.7-.7.7-1.9 0-2.6s-1.9-.7-2.7 0c-.6.6-6.4 6-12.4 0-.7-.8-1.9-.8-2.6-.1zM500.4 80c0-1-.8-1.9-1.9-1.9H491c-1 0-1.9.8-1.9 1.9s.8 1.9 1.9 1.9h7.5c1 0 1.9-.9 1.9-1.9zM513.5 81.9h7.5c1 0 1.9-.8 1.9-1.9s-.8-1.9-1.9-1.9h-7.5c-1 0-1.9.8-1.9 1.9s.9 1.9 1.9 1.9zM483.5 74.3h15c1 0 1.9-.8 1.9-1.9s-.8-1.9-1.9-1.9h-15c-1 0-1.9.8-1.9 1.9s.8 1.9 1.9 1.9zM513.5 74.3h15c1 0 1.9-.8 1.9-1.9s-.8-1.9-1.9-1.9h-15c-1 0-1.9.8-1.9 1.9s.9 1.9 1.9 1.9z"/><path class="st0" d="M576.6 151.6l-39.2-13.1-7-13.9v-9.8c4.7-3.1 7.5-8.3 7.5-14.1V85.6h1.9c3.2 0 5.6-2.5 5.6-5.6v-7.5c0-3.2-2.5-5.6-5.6-5.6h-1.9V50.7l7-7c.5-.5.7-1.2.5-1.9-.1-.2-8.4-23.8-39.4-23.8s-39.3 23.6-39.3 23.8c-.2.7 0 1.4.5 1.9l7 7v16.1h-1.9c-3.2 0-5.6 2.5-5.6 5.6V80c0 3.2 2.5 5.6 5.6 5.6h1.9v15.1c0 5.7 2.8 10.9 7.5 14.1v9.8l-7 13.9-39.2 13.1c-3.8 1.3-6.4 4.9-6.4 8.9v5.9c0 3.1 2.5 5.6 5.6 5.6h142.7c3.1 0 5.6-2.5 5.6-5.6v-5.9c0-4-2.6-7.6-6.4-8.9zM474.1 81.9h-1.9c-1.1 0-1.9-.8-1.9-1.9v-7.5c0-1.1.8-1.9 1.9-1.9h1.9v11.3zm59.3 57.1l-19.4 6.5-5.1-5.1 18.9-12.6 5.6 11.2zm-22.2 9l-3.5 7.1c-.7 1.3-2.8 1.3-3.4 0l-3.5-7.1 5.2-5.2 5.2 5.2zm-25.9-24v-7.2l13.4 6.7c2.3 1.1 4.7 1.7 7.2 1.7s5-.6 7.2-1.7l13.4-6.7v7.2L506 137.8 485.3 124zm48.9-68.4h-56.3v-4.4c3.6-1.6 16-6.8 28.2-6.8s24.6 5.2 28.2 6.8v4.4h-.1zm-3.5 3.7c-4.1 2.5-11.9 5.6-24.7 5.6s-20.5-3.1-24.7-5.6h49.4zm9.1 11.3c1.1 0 1.9.8 1.9 1.9V80c0 1.1-.8 1.9-1.9 1.9h-1.9V70.6h1.9zM470.6 42c1.9-4.3 10.7-20.2 35.4-20.2 24.9 0 33.5 15.9 35.4 20.2l-5.7 5.7c-4-1.8-16.7-7.1-29.7-7.1s-25.7 5.3-29.7 7.1l-5.7-5.7zm7.2 58.7V61.5c4.3 3 12.9 7.2 28.2 7.2 15.2 0 23.9-4.2 28.2-7.2v39.2c0 5-2.8 9.5-7.3 11.8l-15.3 7.7c-3.5 1.7-7.6 1.7-11.1 0l-15.3-7.7c-4.6-2.2-7.4-6.8-7.4-11.8zm6.4 27.1l18.9 12.6-5.1 5.1-19.4-6.5 5.6-11.2zm-49.6 40.4c-1 0-1.9-.8-1.9-1.9v-5.9c0-2.4 1.5-4.6 3.9-5.3l39.3-13.1 21.2 7.1 3.8 7.6c.3.7.8 1.2 1.3 1.7l-4.9 9.8h-62.7zm66.9 0l4.2-8.4h.6l4.2 8.4h-9zm13.2 0l-4.9-9.9c.5-.5 1-1 1.3-1.7l3.8-7.6 21.2-7.1 4.4 1.5-18.5 24.8h-7.3zm12 0l17.6-23.5 11.3 3.8-14.8 19.7h-14.1zm52.5-1.8c0 1-.8 1.9-1.9 1.9h-31.9l13.8-18.4 16.1 5.4c2.3.8 3.9 2.9 3.9 5.3v5.8z"/><g><path class="st0" d="M208.9 583.2h19.4l24.5 18.4c.1.1.3.2.4.2l37.6 15c1.2.4 2.1-.3 2.4-1 .4-1-.1-2.1-1-2.4l-37.3-14.9-20.3-15.3h19.7l22.1 8.1c.3.1.7.2 1 .1.6-.1 15.4-3.2 21-8.7 1.6-1.5 2.5-3.3 2.5-5.1 0-.5-.2-1-.5-1.3l-17-17.4 3.5-4.3 42.1 28.7 28.8 33.2c.9 1 2.1.7 2.6.2.8-.7.9-1.9.2-2.6l-28.9-33.3c-.1-.1-.2-.2-.4-.3l-4.1-2.8V464.9c0-1-.8-1.9-1.9-1.9H208.9c-1 0-1.9.8-1.9 1.9v116.4c0 1.1.8 1.9 1.9 1.9zm68.3 4.4l-11.9-4.4h25.5c-4.8 2.1-10.7 3.7-13.6 4.4zM254 466.8h26.3v31.1l-4.3-4.3c-.7-.7-1.9-.7-2.7 0l-6.2 6.2-6.2-6.2c-.7-.7-1.9-.7-2.7 0l-4.3 4.3v-31.1h.1zm-43.2 0h39.4v35.7c0 1.7 2 2.5 3.2 1.3l6.2-6.2 6.2 6.2c.7.7 1.9.7 2.7 0l6.2-6.2 6.2 6.2c1.2 1.2 3.2.4 3.2-1.3v-35.7h39.4v108.1l-35.9-24.5c-.8-.6-1.9-.4-2.5.4l-5.6 7c-.6.7-.5 1.8.1 2.5l17.5 18c-.1.4-.4.8-.7 1.2h-85.6V466.8z"/></g><g><path class="st0" d="M617.3 70.4c-.1-.6-.6-1.1-1.1-1.3-5-2-11-3.1-17.7-3.1s-12.7 1-17.7 3.1c-.6.2-1 .7-1.1 1.3-1 4.1-3.1 7.8-6.1 10.9-1.7 1.7-3.6 3.1-5.6 4.1-.7.4-1.1 1.1-1 1.8 2.8 31.2 20.2 48.7 30.3 56.4.7.5 1.6.5 2.3 0 10.2-7.8 27.6-25.3 30.4-56.4.1-.8-.3-1.5-1-1.8-2.1-1.1-4-2.5-5.7-4.2-2.9-3-5-6.8-6-10.8zm-18.8 69.4c-9.6-7.6-24.7-23.8-27.6-51.7 2-1.1 3.8-2.6 5.4-4.2 3.2-3.3 5.6-7.3 6.8-11.7 4.4-1.6 9.6-2.5 15.4-2.5 5.8 0 11 .8 15.4 2.5 1.2 4.3 3.6 8.3 6.7 11.6 1.6 1.6 3.5 3.1 5.5 4.2-2.9 27.9-18 44.1-27.6 51.8z"/></g><g><path class="st0" d="M491.5 499.9L479 489c-.5-.5-1.3-.6-2-.3l-28.5 11.9c-1.1.4-1.6 2-.6 3.1l12.2 11.3c.4.4 1.2.7 2 .4L491 503c1.4-.6 1.4-2.3.5-3.1zm-29.7 11.5l-9.1-8.5 24.7-10.3 9.3 8.2-24.9 10.6z"/><path class="st0" d="M445.3 449.5c-.5-.4-1.2-.6-1.8-.4l-90.1 30c-.6.2-1.4.9-1.3 2l7.5 52.6c0 .2.1.4.2.6l37.6 67.6c.5.8 1.4 1.3 2.5.8l90.1-45.1c.5-.2.8-.7 1-1.2l15-52.6c.2-.8-.1-1.5-.6-1.9l-60.1-52.4zm-1.7 3.5l24.8 21.7-92.6 35.7-18.9-28.4 86.7-29zm-46.5 140.9l-33.9-61-6.3-44.1 16.2 24.3v22c0 1 .8 1.9 1.9 1.9s1.9-.8 1.9-1.9v-16.4l20.2 30.3v44.9zm2.5-47.7l-21.8-32.7 93.7-36.1 29.1 25.4-101 43.4zm87.9 8.5L400.8 598v-48.3l100.4-43-13.7 48z"/></g><g><path class="st0" d="M749.8 301.3c1.7-.8 3.8-.5 5.1.8s1.7 3.4.8 5.1c-.5.9-.1 2.1.9 2.5.9.5 2.1.1 2.5-.9 1.5-3.1.9-6.9-1.6-9.4s-6.2-3.1-9.4-1.6c-.9.5-1.3 1.6-.9 2.5.5 1.1 1.6 1.5 2.6 1z"/><path class="st0" d="M630.5 378.9c-1.9-.2-3.7.4-5 1.7l-5.7 5.8c-3.2 3.1-2.1 8.7 2.4 10.1l20.4 6.8-3.2 5.9c-1.3 2.5-.9 5.3 1.1 7.3 2.1 2.1 4.9 2.3 7.3 1.1l5.9-3.2 6.8 20.4c1.5 4.5 7.1 5.5 10.1 2.4l5.8-5.7c1.3-1.3 2-3.2 1.7-5l-2.7-24.1 29-29.1 29.4 61.4c.9 1.8 2.6 3.1 4.5 3.4s3.9-.3 5.3-1.7l6.1-6.1c1.5-1.5 2.2-3.8 1.6-5.9l-20.2-77.9 33.3-33.2c1.5-1.6 2.7-3.6 3.5-5.7l3.6-10.9c1.1-3.2.2-6.7-2.2-9.1s-5.9-3.2-9.1-2.2l-10.9 3.6c-2.1.8-4.1 2-5.7 3.5l-33.2 33.3-77.8-20.2c-2.1-.5-4.3.1-5.9 1.6l-6.1 6.1c-1.4 1.4-2 3.4-1.7 5.3.3 2 1.6 3.7 3.4 4.5l61.4 29.4-29.1 29-24.1-2.6zm-7.1 14.1c-1.4-.4-2.4-2.4-.9-3.9l5.7-5.8c.5-.5 1.2-.7 1.9-.7l22.3 2.5-8 14.9-21-7zm50.3 35.8l-5.8 5.7c-1.1 1.2-3.3.8-3.9-.9l-7-21 14.9-8 2.5 22.3c0 .7-.2 1.4-.7 1.9zm74-3.4c.2.8 0 1.7-.6 2.2l-6.1 6.1c-.5.5-1.3.7-2 .6-.8-.1-1.4-.6-1.8-1.3l-29.9-62.6 20.8-20.8 19.6 75.8zM624 319.8c-.7-.3-1.2-1-1.3-1.8s.1-1.5.6-2l6.1-6.1c.6-.6 1.5-.8 2.3-.6l75.7 19.7-20.8 20.8-62.6-30zm122.3-24.5c1.2-1.2 2.7-2.1 4.3-2.7l10.9-3.6c1.9-.6 3.9-.2 5.2 1.2 1.4 1.4 1.9 3.4 1.2 5.2l-3.6 10.9c-.6 1.6-1.5 3.1-2.6 4.3L672.2 400 646 414.3c-1.2.6-2.2.2-2.8-.4s-1-1.7-.4-2.8l14.2-26.3 89.3-89.5z"/></g><g><path class="st0" d="M244.1 150.1h-7L178 117.3c.3-.9.4-1.8.4-2.8s-.8-1.9-1.9-1.9c-1 0-1.9.8-1.9 1.9 0 .3 0 .6-.1.9l-4.6-2.6c-.6-.3-1.3-.3-1.8 0l-4.6 2.6c-.1-.3-.1-.6-.1-.9 0-3.1 2.5-5.6 5.6-5.6 1 0 1.9-.8 1.9-1.9v-5.6h5.6c.9 0 1.7-.7 1.9-1.6l3.8-22.5c.1-.5-.1-1.1-.4-1.5-.4-.4-.9-.7-1.4-.7h-22.5c-.6 0-1.1.2-1.4.7-.4.4-.5 1-.4 1.5l3.8 22.5c.2.9.9 1.6 1.9 1.6h5.6v3.9c-4.3.9-7.5 4.7-7.5 9.2 0 1 .2 1.9.4 2.8l-59.1 32.9h-7c-1 0-1.9.8-1.9 1.9v75.1c0 1 .8 1.9 1.9 1.9h150.2c1 0 1.9-.8 1.9-1.9V152c-.3-1-1.1-1.9-2.2-1.9zm-81-52.6L160 78.7h18.1L175 97.5h-11.9zm5.9 19.1l3.7 2.1c-1 .9-2.3 1.4-3.7 1.4s-2.7-.5-3.7-1.4l3.7-2.1zm-7.1 3.9c1.7 2 4.3 3.3 7.1 3.3s5.4-1.3 7.1-3.3l53.2 29.6H108.6l53.3-29.6zm80.3 104.7H95.8v-71.4h146.5v71.4h-.1z"/><path class="st0" d="M101.4 221.5h7.5c1 0 1.9-.8 1.9-1.9v-58.2h5.6c1 0 1.9-.8 1.9-1.9 0-1-.8-1.9-1.9-1.9h-7.5c-1 0-1.9.8-1.9 1.9v58.2h-5.6c-1 0-1.9.8-1.9 1.9 0 1 .9 1.9 1.9 1.9zM114.5 219.6c0 1 .8 1.9 1.9 1.9h7.5c1 0 1.9-.8 1.9-1.9v-58.2h5.6c1 0 1.9-.8 1.9-1.9 0-1-.8-1.9-1.9-1.9h-7.5c-1 0-1.9.8-1.9 1.9v58.2h-5.6c-1 0-1.9.9-1.9 1.9zM129.6 219.6c0 1 .8 1.9 1.9 1.9h7.5c1 0 1.9-.8 1.9-1.9v-58.2h5.6c1 0 1.9-.8 1.9-1.9 0-1-.8-1.9-1.9-1.9H139c-1 0-1.9.8-1.9 1.9v58.2h-5.6c-1.1 0-1.9.9-1.9 1.9zM144.6 219.6c0 1 .8 1.9 1.9 1.9h7.5c1 0 1.9-.8 1.9-1.9v-58.2h5.6c1 0 1.9-.8 1.9-1.9 0-1-.8-1.9-1.9-1.9H154c-1 0-1.9.8-1.9 1.9v58.2h-5.6c-1.1 0-1.9.9-1.9 1.9zM159.6 219.6c0 1 .8 1.9 1.9 1.9h7.5c1 0 1.9-.8 1.9-1.9v-58.2h5.6c1 0 1.9-.8 1.9-1.9 0-1-.8-1.9-1.9-1.9H169c-1 0-1.9.8-1.9 1.9v58.2h-5.6c-1 0-1.9.9-1.9 1.9zM174.6 219.6c0 1 .8 1.9 1.9 1.9h7.5c1 0 1.9-.8 1.9-1.9v-58.2h5.6c1 0 1.9-.8 1.9-1.9 0-1-.8-1.9-1.9-1.9H184c-1 0-1.9.8-1.9 1.9v58.2h-5.6c-1 0-1.9.9-1.9 1.9zM189.7 219.6c0 1 .8 1.9 1.9 1.9h7.5c1 0 1.9-.8 1.9-1.9v-58.2h5.6c1 0 1.9-.8 1.9-1.9 0-1-.8-1.9-1.9-1.9H199c-1 0-1.9.8-1.9 1.9v58.2h-5.6c-1 0-1.8.9-1.8 1.9zM204.7 219.6c0 1 .8 1.9 1.9 1.9h7.5c1 0 1.9-.8 1.9-1.9v-58.2h5.6c1 0 1.9-.8 1.9-1.9 0-1-.8-1.9-1.9-1.9h-7.5c-1 0-1.9.8-1.9 1.9v58.2h-5.6c-1.1 0-1.9.9-1.9 1.9zM219.7 219.6c0 1 .8 1.9 1.9 1.9h7.5c1 0 1.9-.8 1.9-1.9v-58.2h5.6c1 0 1.9-.8 1.9-1.9 0-1-.8-1.9-1.9-1.9h-7.5c-1 0-1.9.8-1.9 1.9v58.2h-5.6c-1 0-1.9.9-1.9 1.9z"/></g><g><path class="st0" d="M422.8 256.3l-75.1-30c-.5-.2-1-.2-1.4 0l-75.1 30c-.7.3-1.2 1-1.2 1.7 0 12.2 11.8 22 23.2 31.5 6.3 5.2 12.7 10.6 16.9 16.1.6.8 1.8 1 2.6.4s1-1.8.4-2.6c-4.4-5.9-11.1-11.4-17.5-16.8-10.3-8.6-21-17.5-21.8-27.3l71.3-28.5v72.5c0 1 .8 1.9 1.9 1.9s1.9-.8 1.9-1.9v-72.5l71.3 28.5c-.8 9.9-11.5 18.8-21.8 27.3-6.4 5.4-13.1 10.9-17.5 16.8-.6.8-.5 2 .4 2.6.8.6 2 .5 2.6-.4 4.2-5.5 10.7-10.9 16.9-16.1C412.2 280 424 270.2 424 258c0-.7-.5-1.4-1.2-1.7zM422.1 316.2c-4.2 0-8.1-2-10.6-5.4-2.1-2.7-6.7-2.8-8.9 0-2.4 3.4-6.4 5.4-10.6 5.4s-8.1-2-10.6-5.4c-2.1-2.7-6.7-2.8-8.9 0-2.4 3.4-6.4 5.4-10.6 5.4s-8.1-2-10.6-5.4c-2.1-2.7-6.7-2.8-8.9 0-2.4 3.4-6.4 5.4-10.6 5.4s-8.1-2-10.6-5.4c-2.1-2.7-6.7-2.8-8.9 0-2.4 3.4-6.4 5.4-10.6 5.4s-8.1-2-10.6-5.4c-2.1-2.7-6.7-2.8-8.9 0-2.4 3.4-6.4 5.4-10.6 5.4-1 0-1.9.8-1.9 1.9 0 1 .8 1.9 1.9 1.9 5.4 0 10.5-2.6 13.6-6.9.6-.9 2.3-.8 2.8 0 3.1 4.3 8.2 6.9 13.6 6.9s10.5-2.6 13.6-6.9c.6-.9 2.3-.8 2.8 0 3.1 4.3 8.2 6.9 13.6 6.9s10.5-2.6 13.6-6.9c.6-.9 2.3-.8 2.8 0 3.1 4.3 8.2 6.9 13.6 6.9s10.5-2.6 13.6-6.9c.6-.9 2.3-.8 2.8 0 3.1 4.3 8.2 6.9 13.6 6.9s10.5-2.6 13.6-6.9c.6-.9 2.3-.8 2.8 0 3.1 4.3 8.2 6.9 13.6 6.9 1 0 1.9-.8 1.9-1.9.5-1-.3-1.9-1.4-1.9z"/><path class="st0" d="M365.8 166h-37.6c-3.1 0-5.6 2.5-5.6 5.6v9.4h-43.2c-1 0-1.9.8-1.9 1.9v64c0 1 .8 1.9 1.9 1.9 1 0 1.9-.8 1.9-1.9v-17.1h30v3.5c0 1 .8 1.9 1.9 1.9 1 0 1.9-.8 1.9-1.9v-3.5h11.6c1 0 1.9-.8 1.9-1.9s-.8-1.9-1.9-1.9h-11.6v-18.8h30v12.5c0 1 .8 1.9 1.9 1.9s1.9-.8 1.9-1.9v-12.5h30V226h-11.6c-1 0-1.9.8-1.9 1.9s.8 1.9 1.9 1.9h11.6v3.5c0 1 .8 1.9 1.9 1.9 1 0 1.9-.8 1.9-1.9v-3.5h30v17.1c0 1 .8 1.9 1.9 1.9 1 0 1.9-.8 1.9-1.9v-64c0-1-.8-1.9-1.9-1.9h-43.2v-9.4c0-3.1-2.5-5.6-5.6-5.6zm-54.5 60.1h-30v-18.8h30v18.8zm0-22.5h-30v-18.8h30v18.8zm71.4-18.8h30v18.8h-30v-18.8zm0 22.5h30v18.8h-30v-18.8zm-37.6-3.7h-30v-18.8h30v18.8zM326.3 181v-9.4c0-1 .8-1.9 1.9-1.9h37.6c1 0 1.9.8 1.9 1.9v9.4h-41.4zm52.6 3.8v18.8h-30v-18.8h30zM330.7 268.3c3.7-1.3 5.2-6.3 3.4-11.4-1.8-5.1-6.1-8-9.8-6.7-3.7 1.3-5.2 6.3-3.4 11.4 1.7 4.8 5.8 8.1 9.8 6.7zm-5.1-14.6c1.5-.5 3.9 1.2 5 4.4s.3 6.1-1.1 6.6c-1.5.5-3.9-1.2-5-4.4-1.2-3.2-.4-6.1 1.1-6.6zM373.1 261.6c1.8-5.1.3-10.1-3.4-11.4-3.7-1.3-8 1.6-9.8 6.7s-.3 10.1 3.4 11.4c4 1.4 8.1-1.9 9.8-6.7zm-9.7-3.5c1.1-3.2 3.6-4.9 5-4.4 1.5.5 2.3 3.4 1.1 6.6-1.1 3.2-3.5 4.9-5 4.4-1.4-.5-2.3-3.3-1.1-6.6z"/></g><g><path class="st0" d="M694.1 553.8c3.1-5.7 4.9-12.3 4.9-19.3 0-22.3-18.1-40.4-40.4-40.4-22.3 0-40.4 18.1-40.4 40.4s18.1 40.4 40.4 40.4c7 0 13.5-1.8 19.3-4.9l29.4 29.4c5.3 5.3 12.2 4.1 16.3 0 4-4 5.3-10.9 0-16.3l-29.5-29.3zm-35.6 17.4c-20.2 0-36.7-16.5-36.7-36.7s16.5-36.7 36.7-36.7 36.7 16.5 36.7 36.7-16.5 36.7-36.7 36.7zm22.6-3.1c4.3-2.9 8.1-6.7 11-11l2.7 2.7c-2.9 4.3-6.7 8.1-11 11l-2.7-2.7zm39.7 28.7c-2.7 2.7-7.2 3.8-11 0l-23.4-23.4c4.2-3 8-6.7 11-11l23.4 23.4c3.8 3.8 2.7 8.3 0 11z"/><path class="st0" d="M650 531c1 0 1.9-.8 1.9-1.9v-16.5c0-1-.8-1.9-1.9-1.9-1 0-1.9.8-1.9 1.9v16.5c0 1.1.9 1.9 1.9 1.9zM666.8 531c1 0 1.9-.8 1.9-1.9v-16.6c0-1-.8-1.9-1.9-1.9-1 0-1.9.8-1.9 1.9v16.6c.1 1.1.9 1.9 1.9 1.9zM675.2 516.1c-1 0-1.9.8-1.9 1.9v11.2c0 1 .8 1.9 1.9 1.9 1 0 1.9-.8 1.9-1.9V518c0-1.1-.8-1.9-1.9-1.9zM641.6 535.7h-6.4c-1 0-1.9.8-1.9 1.9 0 1 .8 1.9 1.9 1.9h4.5v11.4c0 1 .8 1.9 1.9 1.9s1.9-.8 1.9-1.9v-13.3c0-1.1-.9-1.9-1.9-1.9zM658.4 539.5c1 0 1.9-.8 1.9-1.9 0-1-.8-1.9-1.9-1.9H650c-1 0-1.9.8-1.9 1.9v8.4c0 1 .8 1.9 1.9 1.9h6.5v4.7H650c-1 0-1.9.8-1.9 1.9 0 1 .8 1.9 1.9 1.9h8.4c1 0 1.9-.8 1.9-1.9V546c0-1-.8-1.9-1.9-1.9h-6.5v-4.7h6.5v.1zM675.2 535.7h-8.4c-1 0-1.9.8-1.9 1.9v16.8c0 1 .8 1.9 1.9 1.9h4.2c1 0 1.9-.8 1.9-1.9 0-1-.8-1.9-1.9-1.9h-2.3v-13.1h4.7V551c0 1 .8 1.9 1.9 1.9 1 0 1.9-.8 1.9-1.9v-13.5c-.1-1-.9-1.8-2-1.8z"/><path class="st0" d="M658.5 501.6c-18.2 0-32.9 14.8-32.9 32.9 0 18.2 14.8 32.9 32.9 32.9 18.2 0 32.9-14.8 32.9-32.9 0-18.1-14.7-32.9-32.9-32.9zm0 62.1c-16.1 0-29.2-13.1-29.2-29.2s13.1-29.2 29.2-29.2 29.2 13.1 29.2 29.2-13.1 29.2-29.2 29.2zM574.9 449c-1 0-1.9.8-1.9 1.9v97.7c0 1 .8 1.9 1.9 1.9 1 0 1.9-.8 1.9-1.9v-97.7c0-1.1-.9-1.9-1.9-1.9zM725.1 449c-1 0-1.9.8-1.9 1.9v97.7c0 1 .8 1.9 1.9 1.9 1 0 1.9-.8 1.9-1.9v-97.7c0-1.1-.8-1.9-1.9-1.9zM588 450.9V526c0 1 .8 1.9 1.9 1.9 1 0 1.9-.8 1.9-1.9v-75.1c0-1-.8-1.9-1.9-1.9-1 0-1.9.8-1.9 1.9zM597.4 449c-1 0-1.9.8-1.9 1.9V526c0 1 .8 1.9 1.9 1.9 1 0 1.9-.8 1.9-1.9v-75.1c0-1.1-.9-1.9-1.9-1.9zM625.6 450.9v49.7c0 1 .8 1.9 1.9 1.9 1 0 1.9-.8 1.9-1.9v-49.7c0-1-.8-1.9-1.9-1.9-1.1 0-1.9.8-1.9 1.9zM635 449c-1 0-1.9.8-1.9 1.9V495c0 1 .8 1.9 1.9 1.9 1 0 1.9-.8 1.9-1.9v-44.1c0-1.1-.9-1.9-1.9-1.9zM651.9 489.3v-38.4c0-1-.8-1.9-1.9-1.9-1 0-1.9.8-1.9 1.9v38.4c0 1 .8 1.9 1.9 1.9 1-.1 1.9-.9 1.9-1.9zM612.4 449c-1 0-1.9.8-1.9 1.9V526c0 1 .8 1.9 1.9 1.9 1 0 1.9-.8 1.9-1.9v-75.1c0-1.1-.8-1.9-1.9-1.9zM618.1 450.9v58.5c0 1 .8 1.9 1.9 1.9 1 0 1.9-.8 1.9-1.9v-58.5c0-1-.8-1.9-1.9-1.9-1.1 0-1.9.8-1.9 1.9zM666.9 489v-38.1c0-1-.8-1.9-1.9-1.9-1 0-1.9.8-1.9 1.9V489c0 1 .8 1.9 1.9 1.9 1.1-.1 1.9-.9 1.9-1.9zM674.4 490.7v-39.8c0-1-.8-1.9-1.9-1.9-1 0-1.9.8-1.9 1.9v39.8c0 1 .8 1.9 1.9 1.9 1.1 0 1.9-.9 1.9-1.9zM689.4 498.8v-47.9c0-1-.8-1.9-1.9-1.9-1 0-1.9.8-1.9 1.9v47.9c0 1 .8 1.9 1.9 1.9 1.1 0 1.9-.9 1.9-1.9zM704.5 526v-75.1c0-1-.8-1.9-1.9-1.9-1 0-1.9.8-1.9 1.9V526c0 1 .8 1.9 1.9 1.9 1 0 1.9-.9 1.9-1.9zM710.1 527.9c1 0 1.9-.8 1.9-1.9v-75.1c0-1-.8-1.9-1.9-1.9-1 0-1.9.8-1.9 1.9V526c0 1 .9 1.9 1.9 1.9zM597.4 531.6h-7.5c-1 0-1.9.8-1.9 1.9 0 1 .8 1.9 1.9 1.9h4.5l-6.2 12.3c-.5.9-.1 2.1.8 2.5 1.1.5 2.1 0 2.5-.8l7.5-15c.3-.6.3-1.3-.1-1.8-.2-.6-.8-1-1.5-1zM612.4 531.6h-7.5c-1 0-1.9.8-1.9 1.9v15c0 1 .8 1.9 1.9 1.9h7.5c1 0 1.9-.8 1.9-1.9v-15c0-1-.8-1.9-1.9-1.9zm-1.8 15.1h-3.8v-11.3h3.8v11.3zM708.2 548.5c0 1 .8 1.9 1.9 1.9 1 0 1.9-.8 1.9-1.9v-15c0-1-.8-1.9-1.9-1.9-1 0-1.9.8-1.9 1.9v15z"/></g><g><path class="st0" d="M396.4 693.4c-.3-.6-1-1-1.7-1h-21.5c-.5 0-1 .2-1.3.6l-10.7 10.7c-.5.5-.7 1.2-.5 1.9l10.6 31.9v21.2c0 .8.5 1.4 1.2 1.7.6.3 1.5.2 2-.4l11-11 21.5-32.2c.4-.6.4-1.3.1-1.9l-10.7-21.5zm-13.7 53.2l-7.5 7.5v-16.9c0-.2 0-.4-.1-.6l-10.4-31.1 9.4-9.4h19.5l9.7 19.5-20.6 31z"/><path class="st0" d="M384 628c-42.5 0-77 34.5-77 77s34.5 77 77 77 77-34.5 77-77-34.5-77-77-77zm-73.2 77c0-8.7 1.5-17.1 4.3-24.8l2.9 4.4c.3.5.9.8 1.6.8h8.9v8.1l-10.2 10.2c-.4.4-.6.8-.6 1.3v20.7l-3 3c-2.5-7.4-3.9-15.4-3.9-23.7zm28.4 57.9c-6.9-5.4-12.8-11.9-17.4-19.3l8.2-4.1 9.2 9.2v14.2zm44.8 15.3c-6.9 0-13.6-1-19.9-2.8 5.1-2.8 11.7-4.2 19.9-4.2 8.1 0 14.8 1.4 19.9 4.2-6.4 1.9-13 2.8-19.9 2.8zm47.6-17.6l-12.7-12.7 8.6-8.6 17.7 5.9c-3.9 5.8-8.4 11-13.6 15.4zm25.6-55.6c0 13.5-3.7 26.1-10.1 37l-19.7-6.6c-.7-.2-1.4-.1-1.9.5l-10.7 10.7c-.7.7-.7 1.9 0 2.7l13.8 13.8c-6 4.6-12.8 8.4-20.1 11-6-4.3-14.2-6.5-24.6-6.5-10.3 0-18.6 2.2-24.6 6.5-5.9-2.1-11.4-4.9-16.5-8.4V748c0-.5-.2-1-.6-1.3L331.5 736c-.6-.6-1.4-.7-2.2-.4l-9.7 4.8c-1.4-2.5-2.6-5.1-3.7-7.7l4.8-4.8c.4-.4.6-.8.6-1.3v-20.7l10.2-10.2c.4-.4.6-.8.6-1.3v-10.7c0-1-.8-1.9-1.9-1.9h-9.7l-3.8-5.7c11.2-25.7 36.7-43.8 66.4-44.1l-11.3 7.5-21.5 21.5c-.6.6-.7 1.4-.4 2.2l10.7 21.5c.3.6 1 1 1.7 1H384c.5 0 1-.2 1.3-.6l8.9-8.9 9.6 19.1c.3.6 1 1 1.7 1h10l10.2 10.2c.7.7 1.9.7 2.7 0l25-25c2.4 7.2 3.8 15.2 3.8 23.5zm-30.3-2.7l-9.4-9.4c-.4-.4-.8-.6-1.3-.6h-9.6L396.4 672c-.5-1.1-2-1.5-3-.5l-10.2 10.2h-19.5l-9.6-19.2 20.2-20.3 15.3-10.2c28.2 2.2 52 20.3 62.2 45.4l-24.9 24.9z"/></g><g><path class="st0" d="M123.1 674.5c-.5 1.5 1 2.8 2.4 2.4l20.2-6.7c10.3 6.3 23.2 8.3 34.7 5.6 1-.2 1.6-1.2 1.4-2.3-.2-1-1.2-1.6-2.3-1.4-10.8 2.5-23 .5-32.6-5.6-.5-.3-1.1-.4-1.6-.2l-17.5 5.8 5.8-17.5c.2-.5.1-1.1-.2-1.6-4.4-6.8-6.7-14.8-6.7-23 0-23.8 19.4-43.2 43.2-43.2s43.2 19.4 43.2 43.2c0 3.3-.4 6.6-1.1 9.6a2 2 0 0 0 1.4 2.3c1 .2 2-.4 2.3-1.4.8-3.3 1.2-6.9 1.2-10.5 0-25.9-21.1-47-47-47s-47 21.1-47 47c0 8.7 2.4 17 6.8 24.3l-6.6 20.2z"/><path class="st0" d="M183.1 690c0 25.9 21.1 47 47 47 8.7 0 17-2.3 24.3-6.8l20.2 6.7c1.5.5 2.8-.9 2.4-2.4l-6.7-20.2c4.5-7.3 6.8-15.6 6.8-24.3 0-25.9-21.1-47-47-47-25.9.1-47 21.1-47 47zm46.9-43.2c23.8 0 43.2 19.4 43.2 43.2 0 8.2-2.3 16.2-6.7 23-.3.5-.4 1.1-.2 1.6l5.8 17.5-17.5-5.8c-.5-.2-1.1-.1-1.6.2-6.8 4.4-14.8 6.7-23 6.7-23.8 0-43.2-19.4-43.2-43.2.1-23.8 19.4-43.2 43.2-43.2z"/><path class="st0" d="M207.5 697.6c4.1 0 7.5-3.4 7.5-7.5s-3.4-7.5-7.5-7.5-7.5 3.4-7.5 7.5 3.4 7.5 7.5 7.5zm0-11.3c2.1 0 3.8 1.7 3.8 3.8s-1.7 3.8-3.8 3.8-3.8-1.7-3.8-3.8c.1-2.1 1.7-3.8 3.8-3.8zM230 697.6c4.1 0 7.5-3.4 7.5-7.5s-3.4-7.5-7.5-7.5-7.5 3.4-7.5 7.5 3.4 7.5 7.5 7.5zm0-11.3c2.1 0 3.8 1.7 3.8 3.8s-1.7 3.8-3.8 3.8-3.8-1.7-3.8-3.8c.1-2.1 1.8-3.8 3.8-3.8zM252.6 697.6c4.1 0 7.5-3.4 7.5-7.5s-3.4-7.5-7.5-7.5-7.5 3.4-7.5 7.5 3.3 7.5 7.5 7.5zm0-11.3c2.1 0 3.8 1.7 3.8 3.8s-1.7 3.8-3.8 3.8-3.8-1.7-3.8-3.8c0-2.1 1.7-3.8 3.8-3.8zM139.9 630c0 4.1 3.4 7.5 7.5 7.5s7.5-3.4 7.5-7.5-3.4-7.5-7.5-7.5-7.5 3.3-7.5 7.5zm11.3 0c0 2.1-1.7 3.8-3.8 3.8s-3.8-1.7-3.8-3.8 1.7-3.8 3.8-3.8 3.8 1.7 3.8 3.8zM162.4 630c0 4.1 3.4 7.5 7.5 7.5s7.5-3.4 7.5-7.5-3.4-7.5-7.5-7.5-7.5 3.3-7.5 7.5zm11.3 0c0 2.1-1.7 3.8-3.8 3.8s-3.8-1.7-3.8-3.8 1.7-3.8 3.8-3.8 3.8 1.7 3.8 3.8zM200 630c0-4.1-3.4-7.5-7.5-7.5s-7.5 3.4-7.5 7.5 3.4 7.5 7.5 7.5 7.5-3.4 7.5-7.5zm-11.3 0c0-2.1 1.7-3.8 3.8-3.8s3.8 1.7 3.8 3.8-1.7 3.8-3.8 3.8-3.8-1.8-3.8-3.8z"/></g><g><path class="st0" d="M209 348c.6 0 1.2-.3 1.6-.8 1.2-1.9 30.4-45.6 30.4-68.4 0-17.5-14.4-31.8-32-31.8s-32 14.3-32 31.8c0 22.7 29.2 66.5 30.4 68.4.4.5 1 .8 1.6.8zm0-97.3c15.6 0 28.2 12.6 28.2 28.1 0 18.7-22.1 54.3-28.2 63.9-6.1-9.5-28.2-45.2-28.2-63.9 0-15.5 12.6-28.1 28.2-28.1z"/><path class="st0" d="M225.9 278.8c0-9.3-7.6-16.8-16.9-16.8-9.3 0-16.9 7.6-16.9 16.8s7.6 16.8 16.9 16.8c9.3 0 16.9-7.5 16.9-16.8zm-30.1 0c0-7.2 5.9-13.1 13.2-13.1s13.2 5.9 13.2 13.1-5.9 13.1-13.2 13.1-13.2-5.9-13.2-13.1z"/></g><g><path class="st0" d="M52.5 355c.3.8 1.2 1.6 2.4 1.2 1-.3 1.5-1.4 1.2-2.4-2.5-7.7-3.8-15.7-4-24h28.1v9.7c0 1 .8 1.9 1.9 1.9 1 0 1.9-.8 1.9-1.9v-9.7h16.7c1 0 1.9-.8 1.9-1.9s-.8-1.9-1.9-1.9H83.9v-24.6c7.6-.2 15.2-1.3 22.6-3.5 2.6 6.9 4.3 14.1 5 21.3.1 1 .9 1.8 2.1 1.7 1-.1 1.8-1 1.7-2.1-.8-7.4-2.5-14.8-5.2-22 7.8-2.6 15.3-6.4 22.2-11.2 2.8 3.3 5.3 6.9 7.4 10.8.5.9 1.7 1.2 2.6.8.9-.5 1.2-1.6.7-2.5-12.2-22.3-35.6-36.2-61-36.2-38.3 0-69.5 31.2-69.5 69.5 0 14 4.1 27.4 12 38.9.4.5 1.4 1.2 2.6.5.8-.5 1.1-1.8.5-2.6-7.1-10.4-10.9-22.4-11.3-34.9h32c.2 8.6 1.6 17.1 4.2 25.1zm77.3-72.1c-6.6 4.6-13.7 8.1-21.1 10.5-5-11.7-12.6-22.4-22.3-31 16.7 1.1 32.1 8.6 43.4 20.5zm-45.9-17.7c9.2 8.3 16.4 18.1 21.2 29.4-6.9 2-14.1 3-21.2 3.2v-32.6zm-3.8 60.9h-28c.2-9.6 2-19 5.4-28.1 7.4 2.1 15 3.3 22.6 3.5v24.6zm0-28.3c-7.1-.2-14.3-1.2-21.2-3.2 4.8-11.3 12-21.1 21.2-29.4v32.6zm-2.5-35.4c-9.7 8.7-17.2 19.1-22.3 31-7.4-2.5-14.5-6-21.1-10.5 11.1-11.7 26.3-19.3 43.4-20.5zm-45.9 23.3c7 4.8 14.4 8.6 22.2 11.2-3.5 9.4-5.4 19.2-5.6 29.2h-32c.5-15.3 6.2-29.4 15.4-40.4z"/><path class="st0" d="M141.7 279.4C132.5 268.2 113.1 251 82 251c-42.5 0-77 34.5-77 77 0 8.6 1.4 19.4 6.4 30.8-5.8 7.1-7.6 12.2-5.5 15.5 4 6.4 19.1 1.9 25.3-.2 1-.3 1.5-1.4 1.2-2.4s-1.4-1.5-2.4-1.2c-9.2 3.3-19.2 4.5-20.9 1.8-.4-.6-1.1-3 4.1-9.8 1.1 2.1 2.3 4.3 3.6 6.4.6.9 1.9.8 2.5.4 1-.7.9-1.9.4-2.8-9-15.2-11-28-11-38.5 0-40.4 32.9-73.2 73.2-73.2 22.5 0 47.9 10.8 63 35.9.5.9 1.7 1.2 2.6.7.9-.5 1.1-1.6.7-2.6-.2-.4-1.5-2.7-3.9-6 8.3-1.5 10.2.3 10.6 1 .4.7 1.2 3.5-6 12.1-10.7 12.5-33.2 30-58.8 45.5-13.8 8.4-27.6 15.8-40 21.4-2 .9-3.9 1.8-5.8 2.6l2.4-5.2c.4-.9 0-2.1-.9-2.5s-2.1 0-2.5.9l-4.5 9.6c-.4.9 0 2.1.9 2.5l9.6 4.5c1.1.5 2.1 0 2.5-.9.5-.9 0-2.1-.9-2.5l-5.8-2.7c2.1-.9 4.3-1.8 6.5-2.8 12.5-5.6 26.5-13.1 40.4-21.6 26.3-16 48.6-33.3 59.7-46.3 6.4-7.6 8.5-13 6.3-16.5-1.9-3.6-7.3-4.3-16.3-2.5z"/><path class="st0" d="M82 397.5c38.3 0 69.5-31.2 69.5-69.5 0-6-.8-12-2.2-17.7-.3-1-1.3-1.6-2.3-1.3-1 .3-1.6 1.3-1.3 2.3 1.3 4.8 1.9 9.8 2.1 14.9h-20.9c-1 0-1.9.8-1.9 1.9s.8 1.9 1.9 1.9h20.9c-.4 15.4-6.2 29.4-15.4 40.4-4.7-3.2-12.6-7.5-22.4-10.7 2.7-7.2 4.5-14.5 5.3-21.9.1-1-.6-2-1.7-2.1-1-.1-2 .6-2.1 1.7-.8 7.1-2.5 14.2-5.2 21.2-7.4-2.1-15.6-3.6-24.3-3.6-1 0-1.9.8-1.9 1.9v34c-7.5-6.7-13.7-14.6-18.3-23.4-.5-.9-1.6-1.3-2.5-.8s-1.3 1.6-.8 2.5c4.9 9.2 11.3 17.3 19.1 24.3-14.7-1-28.6-6.8-39.5-16.8-.8-.7-2-.6-2.7.1-.7.8-.6 2 .1 2.7 12.8 11.6 29.3 18 46.5 18zm26.4-34.3c9.3 3 16.9 7 21.3 9.9-11 11.7-26.3 19.3-43.3 20.5 9.6-8.6 17-18.8 22-30.4zm-24.5-4.5c7.4.2 14.5 1.5 20.9 3.3-4.8 11-11.8 20.6-20.9 28.8v-32.1z"/><path class="st0" d="M152.9 303c-1 .3-1.5 1.4-1.2 2.4 2.4 7.2 3.6 14.8 3.6 22.6 0 40.4-32.9 73.2-73.2 73.2-19.7 0-38.2-7.7-52.1-21.8-.7-.7-1.9-.7-2.7 0-.7.7-.7 1.9 0 2.7C41.8 396.9 61.3 405 82 405c42.5 0 77-34.5 77-77 0-8.2-1.3-16.2-3.8-23.8-.3-1-1.4-1.5-2.3-1.2z"/></g><g><path class="st0" d="M490 377.6v52.7c0 3.1 2.5 5.6 5.6 5.6h89.8c3.1 0 5.6-2.5 5.6-5.6v-52.7c0-3.1-2.5-5.6-5.6-5.6h-89.8c-3.1 0-5.6 2.5-5.6 5.6zm97.3 52.8c0 1-.8 1.9-1.9 1.9h-89.8c-1 0-1.9-.8-1.9-1.9v-32h93.5v32h.1zm0-35.8h-93.5v-11.3h93.5v11.3zm0-17v1.9h-93.5v-1.9c0-1 .8-1.9 1.9-1.9h89.8c.9.1 1.8.9 1.8 1.9z"/><path class="st0" d="M499.4 420.9h67.3c1 0 1.9-.8 1.9-1.9v-15c0-1-.8-1.9-1.9-1.9h-67.3c-1 0-1.9.8-1.9 1.9v15.1c0 1 .8 1.8 1.9 1.8zm1.8-15h63.6v11.3h-63.6v-11.3zM499.4 428.5h52.4c1 0 1.9-.8 1.9-1.9s-.8-1.9-1.9-1.9h-52.4c-1 0-1.9.8-1.9 1.9s.8 1.9 1.9 1.9z"/></g><g><path class="st0" d="M598.1 206.8h18.1l4.4 8.8-5.2-1.7c-2.7-.9-5.6.6-6.5 3.2l-2 6.1c-.9 2.7.6 5.6 3.2 6.5l7.6 2.5c-.2.4-.5.8-.6 1.2l-2 6.1c-.9 2.7.6 5.6 3.2 6.5l7.6 2.5c-.2.4-.5.8-.6 1.2l-2 6.1c-.9 2.7.6 5.6 3.2 6.5l18.3 6.1c.8.2 1.5.3 2.2.2l4.8 9.6c1.5 3 4.9 3.9 7.6 2.6l7.4-3.7c3.4 2.2 6.9 4.1 10 5.7.9.5 2 .1 2.5-.8s.1-2.1-.8-2.5c-2.4-1.2-5.1-2.7-7.7-4.3l56-27.9c2.7-1.5 3.8-4.8 2.4-7.5L707.3 196c-4-8.1-10.5-15-15.6-20.6-3.5-3.7-6.4-6.9-7.8-9.5-.4-.7-2-4.2-2-4.2-.8-1.8-1.5-3.6-1.7-5.1-.3-2.1.2-3.6 1.8-4.7 6.2 4.8 40 31.2 48.9 49 2.3 4.6 3.4 11.1 4.5 18 1.5 9.2 3.3 19.5 8.1 28.8.6 1.2 1.9 1.2 2.5.8.9-.5 1.3-1.6.8-2.5-4.6-8.7-6.3-18.8-7.7-27.7-1.2-7.2-2.3-14-4.9-19.1-9.8-19.5-46.4-47.6-50.6-50.8l-8.1-16.3c-1.3-2.8-4.7-4-7.6-2.6L600.6 163c-2.7 1.5-3.8 4.8-2.4 7.6l9.7 19.4h-9.8c-2.8.1-5 2.4-5 5.2v6.4c0 3 2.3 5.2 5 5.2zm13.2 19.3c-.7-.2-1.1-1-.9-1.7l2-6.1c.3-.8 1.2-1 1.7-.9l18.3 6.1c.7.2 1.1.9.9 1.7l-2 6.1c-.2.7-1 1.1-1.7.9l-18.3-6.1zm8.1 16.3c-.7-.2-1.1-1-.9-1.7l2-6.1c.3-.8 1.2-1 1.7-.9l18.3 6.1c.7.2 1.1.9.9 1.7l-2 6.1c-.2.7-1 1.1-1.7.9l-18.3-6.1zm30.3 15.4l-2 6.1c-.2.7-1 1.1-1.7.9l-18.3-6.1c-.7-.2-1.1-1-.9-1.7l2-6.1c.3-.8 1.2-1 1.7-.9l18.3 6.1c.7.3 1.1 1 .9 1.7zm39.2-73.6l-6.7 3.4-3.4-6.7 6.7-3.4 3.4 6.7zm-87.4-15.1c-.5-1-.1-2.1.8-2.6l67.2-33.5c.9-.5 2.1-.1 2.5.9l7.6 15.2c-1.2.9-2 1.9-2.6 3.1l-3.3-6.6c-.5-.9-1.6-1.3-2.5-.8L610.7 175c-.9.5-1.3 1.6-.8 2.5l10.1 20.2c.5.9 1.6 1.3 2.5.8l58.9-29.4c.9 1.4 2.1 2.9 3.5 4.5l-9.5 4.7c-.9.5-1.3 1.6-.8 2.5l5 10.1c.5.9 1.6 1.3 2.5.8l10.1-5c.9-.5 1.3-1.6.8-2.5l-1.9-3.9c4.5 4.9 9.5 10.8 12.8 17.3l21.8 43.7c.4.9 0 2-.8 2.5l-67.2 33.5c-1 .4-2.1.1-2.5-.9l-4.9-9.8c.4-.5.7-1 .9-1.6l1-3 2.1 4.3c.5.9 1.6 1.3 2.5.8l10.1-5c.9-.5 1.3-1.6.8-2.5l-5-10.1c-.5-.9-1.6-1.3-2.5-.8l-8.9 4.4c-.4-.3-.8-.5-1.3-.7l-7.6-2.5c.3-.4.5-.8.6-1.2l1-3 1.9 3.9c.5.9 1.6 1.3 2.5.8l10.1-5c.9-.5 1.3-1.6.8-2.5l-5-10.1c-.5-.9-1.6-1.3-2.5-.8l-9.2 4.6c-.3-.1-.5-.3-.8-.4l-7.6-2.5c.3-.4.5-.8.6-1.2l1-3.1 1.7 3.4c.5.9 1.6 1.3 2.5.8l10.1-5c.9-.5 1.3-1.6.8-2.5l-5-10.1c-.5-.9-1.6-1.3-2.5-.8l-9.6 4.8-8.3-2.8-24-48.1zm78.1-3.4l-57.1 28.5-8.4-16.8 57.1-28.5c.1 0 8 16.1 8.4 16.8zm-26.1 90.7l6.7-3.4 3.4 6.7-6.7 3.4-3.4-6.7zm-8.4-16.8l6.7-3.4 3.4 6.7-6.7 3.4-3.4-6.7zm-8.4-16.8l6.7-3.4 3.4 6.7-6.7 3.4-3.4-6.7zM598.1 194l11.6-.1 4.6 9.1h-16.1c-.9 0-1.3-.6-1.3-1.3v-6.4c-.1-.7.5-1.3 1.2-1.3z"/><path class="st0" d="M631.7 216.9l10.1-5c.9-.5 1.3-1.6.8-2.5l-5-10.1c-.5-.9-1.6-1.3-2.5-.8l-10.1 5c-.9.5-1.3 1.6-.8 2.5l5 10.1c.4.9 1.6 1.3 2.5.8zm3.4-14.3l3.4 6.7-6.7 3.4-3.4-6.7 6.7-3.4zM646 207.7c.5.9 1.6 1.3 2.5.8l10.1-5c.9-.5 1.3-1.6.8-2.5l-5-10.1c-.5-.9-1.6-1.3-2.5-.8l-10.1 5c-.9.5-1.3 1.6-.8 2.5l5 10.1zm5.9-13.4l3.4 6.7-6.7 3.4-3.4-6.7 6.7-3.4zM662.8 199.3c.5.9 1.6 1.3 2.5.8l10.1-5c.9-.5 1.3-1.6.8-2.5l-5-10.1c-.5-.9-1.6-1.3-2.5-.8l-10.1 5c-.9.5-1.3 1.6-.8 2.5l5 10.1zm5.9-13.4l3.4 6.7-6.7 3.4-3.4-6.7 6.7-3.4zM667.8 217.8l-5-10.1c-.5-.9-1.6-1.3-2.5-.8l-10.1 5c-.9.5-1.3 1.6-.8 2.5l5 10.1c.5.9 1.6 1.3 2.5.8l10.1-5c.9-.5 1.3-1.6.8-2.5zm-10.9 3.3l-3.4-6.7 6.7-3.4 3.4 6.7-6.7 3.4zM666.2 206l5 10.1c.5.9 1.6 1.3 2.5.8l10.1-5c.9-.5 1.3-1.6.8-2.5l-5-10.1c-.5-.9-1.6-1.3-2.5-.8l-10.1 5c-.9.5-1.3 1.6-.8 2.5zm10.9-3.3l3.4 6.7-6.7 3.4-3.4-6.7 6.7-3.4zM688 207.7c.5.9 1.6 1.3 2.5.8l10.1-5c.9-.5 1.3-1.6.8-2.5l-5-10.1c-.5-.9-1.6-1.3-2.5-.8l-10.1 5c-.9.5-1.3 1.6-.8 2.5l5 10.1zm5.9-13.4l3.4 6.7-6.7 3.4-3.4-6.7 6.7-3.4zM676.2 234.6l-5-10.1c-.5-.9-1.6-1.3-2.5-.8l-10.1 5c-.9.5-1.3 1.6-.8 2.5l5 10.1c.5.9 1.6 1.3 2.5.8l10.1-5c.9-.5 1.3-1.6.8-2.5zm-10.9 3.3l-3.4-6.7 6.7-3.4 3.4 6.7-6.7 3.4zM682.1 233.8l10.1-5c.9-.5 1.3-1.6.8-2.5l-5-10.1c-.5-.9-1.6-1.3-2.5-.8l-10.1 5c-.9.5-1.3 1.6-.8 2.5l5 10.1c.4.8 1.5 1.2 2.5.8zm3.4-14.3l3.4 6.7-6.7 3.4-3.4-6.7 6.7-3.4zM691.3 214.5l13.4 26.9c.5.9 1.6 1.3 2.5.8l10.1-5c.9-.5 1.3-1.6.8-2.5l-13.4-26.9c-.5-.9-1.6-1.3-2.5-.8l-10.1 5c-.8.4-1.2 1.5-.8 2.5zm11-3.4l11.7 23.5-6.7 3.4-11.7-23.5 6.7-3.4zM679.5 241.3c-.5-.9-1.6-1.3-2.5-.8l-10.1 5c-.9.5-1.3 1.6-.8 2.5l5 10.1c.5.9 1.6 1.3 2.5.8l10.1-5c.9-.5 1.3-1.6.8-2.5l-5-10.1zm-5.8 13.4l-3.4-6.7 6.7-3.4 3.4 6.7-6.7 3.4zM696.4 232.9c-.5-.9-1.6-1.3-2.5-.8l-10.1 5c-.9.5-1.3 1.6-.8 2.5l5 10.1c.5.9 1.6 1.3 2.5.8l10.1-5c.9-.5 1.3-1.6.8-2.5l-5-10.1zm-5.9 13.5l-3.4-6.7 6.7-3.4 3.4 6.7-6.7 3.4z"/></g><g><path class="st0" d="M517.9 620.1l6.2 1.9v26.3c0 .9.6 1.6 1.4 1.8l30 7.5c.3.1.6.1.9 0l30-7.5c.8-.2 1.4-1 1.4-1.8V622l6.2-1.9c1.3-.5 1.7-1.8 1-2.8l-7.5-11.3c-.3-.4-.6-.7-1.1-.8l-30-7.5c-.3-.1-.6-.1-.9 0l-30 7.5c-.5.1-.9.4-1.1.8l-7.5 11.3c-.7 1-.3 2.4 1 2.8zm72.7-2.8l-26.2 8.2-5.5-9.7 26.4-6.6 5.3 8.1zm-32.7-15.4l20.4 5.1-20.4 5.1v-10.2zm0 19.7l4 7c.4.7 1.3 1.1 2.2.9l20.1-6.3v23.7l-26.3 6.6v-31.9zm-3.8 31.9l-26.3-6.6v-23.7l20.1 6.3c.9.3 1.8-.1 2.2-.9l4-7v31.9zm0-51.6v10.2l-20.4-5.1 20.4-5.1zm-27.3 7.3l26.4 6.6-5.5 9.7-26.2-8.2 5.3-8.1z"/><path class="st0" d="M623.6 577H488.4c-5.2 0-9.4 4.2-9.4 9.4v105.2c0 5.2 4.2 9.4 9.4 9.4h50.7v18.8H526c-1 0-1.9.8-1.9 1.9v7.5c0 1 .8 1.9 1.9 1.9h60c1 0 1.9-.8 1.9-1.9v-7.5c0-1-.8-1.9-1.9-1.9h-13.1V701h50.7c5.2 0 9.4-4.2 9.4-9.4V586.4c0-5.2-4.2-9.4-9.4-9.4zm-39.4 146.5v3.8h-56.3v-3.8h56.3zm-41.3-3.8V701h26.3v18.8l-26.3-.1zm86.3-28.1c0 3.1-2.5 5.6-5.6 5.6H488.4c-3.1 0-5.6-2.5-5.6-5.6V586.4c0-3.1 2.5-5.6 5.6-5.6h135.2c3.1 0 5.6 2.5 5.6 5.6v105.2z"/><path class="st0" d="M623.6 584.5H488.4c-1 0-1.9.8-1.9 1.9V669c0 1 .8 1.9 1.9 1.9h135.2c1 0 1.9-.8 1.9-1.9v-82.6c0-1-.9-1.9-1.9-1.9zm-1.9 82.6H490.3v-78.9h131.5l-.1 78.9z"/></g><g><path class="st0" d="M335.1 432c1 0 1.9-.8 1.9-1.9 0-1-.8-1.9-1.9-1.9H184.9c-1 0-1.9.8-1.9 1.9 0 1 .8 1.9 1.9 1.9h5.6v11.3h-5.6c-1 0-1.9.8-1.9 1.9s.8 1.9 1.9 1.9h150.2c1 0 1.9-.8 1.9-1.9s-.8-1.9-1.9-1.9h-5.6V432h5.6zm-129.6 11.2h-11.3V432h11.3v11.2zm45.1 0h-41.3V432h41.3v11.2zm15 0h-11.3V432h11.3v11.2zm45.1 0h-41.3V432h41.3v11.2zm15 0h-11.3V432h11.3v11.2zM286.3 379.3h37.6c1 0 1.9-.8 1.9-1.9v-37.6c0-1-.8-1.9-1.9-1.9h-37.6c-1 0-1.9.8-1.9 1.9v37.6c0 1.1.9 1.9 1.9 1.9zm35.7-3.7h-12.4l12.4-12.4v12.4zm0-17.7l-17.7 17.7h-13.5l31.1-31.2v13.5h.1zm-33.8-16.1h12.4l-12.4 12.4v-12.4zm0 17.7l17.7-17.7h13.5L288.3 373v-13.5h-.1zM286.3 424.4h37.6c1 0 1.9-.8 1.9-1.9V385c0-1-.8-1.9-1.9-1.9h-37.6c-1 0-1.9.8-1.9 1.9v37.6c0 1 .9 1.8 1.9 1.8zm35.7-3.7h-12.4l12.4-12.4v12.4zm0-17.7l-17.7 17.7h-13.5l31.1-31.2V403h.1zm-33.8-16.1h12.4l-12.4 12.4v-12.4zm0 17.7l17.7-17.7h13.5L288.2 418v-13.4zM241.2 379.3h37.6c1 0 1.9-.8 1.9-1.9v-37.6c0-1-.8-1.9-1.9-1.9h-37.6c-1 0-1.9.8-1.9 1.9v37.6c0 1.1.9 1.9 1.9 1.9zm35.7-3.7h-12.4l12.4-12.4v12.4zm0-17.7l-17.7 17.7h-13.5l31.1-31.2v13.5h.1zm-33.8-16.1h12.4l-12.4 12.4v-12.4zm0 17.7l17.7-17.7h13.5L243.2 373v-13.5h-.1zM241.2 424.4h37.6c1 0 1.9-.8 1.9-1.9V385c0-1-.8-1.9-1.9-1.9h-37.6c-1 0-1.9.8-1.9 1.9v37.6c0 1 .9 1.8 1.9 1.8zm35.7-3.7h-12.4l12.4-12.4v12.4zm0-17.7l-17.7 17.7h-13.5l31.1-31.2V403h.1zm-33.8-16.1h12.4l-12.4 12.4v-12.4zm0 17.7l17.7-17.7h13.5L243.1 418v-13.4zM196.1 424.4h37.6c1 0 1.9-.8 1.9-1.9V385c0-1-.8-1.9-1.9-1.9h-37.6c-1 0-1.9.8-1.9 1.9v37.6c.1 1 .9 1.8 1.9 1.8zm35.7-3.7h-12.4l12.4-12.4v12.4zm0-17.7l-17.7 17.7h-13.5l31.1-31.2.1 13.5zM198 386.9h12.4L198 399.2v-12.3zm0 17.7l17.7-17.7h13.5L198 418v-13.4z"/></g><g><path class="st0" d="M406 367.1c-13.6 0-24.7 10.9-24.7 24.4s11.1 24.4 24.7 24.4 24.7-10.9 24.7-24.4c0-13.4-11.1-24.4-24.7-24.4zm0 45.1c-11.6 0-20.9-9.3-20.9-20.7 0-11.4 9.4-20.7 20.9-20.7 11.6 0 20.9 9.3 20.9 20.7 0 11.4-9.3 20.7-20.9 20.7z"/><path class="st0" d="M448.8 387.3c-.3-2.7-2.5-4.7-5.6-5.1-2.3-.3-4.2-1.7-5-3.8-.9-2.1-.5-4.4.9-6.2 1.9-2.4 2-5.5.3-7.5-1.8-2.2-3.8-4.2-6-6-2.1-1.7-5.2-1.6-7.5.2-1.8 1.4-4.2 1.8-6.4.9s-3.6-2.9-3.9-5.1c-.3-2.9-2.4-5.2-5.2-5.4-2.8-.3-5.7-.2-8.6 0-2.7.3-4.8 2.5-5.2 5.5-.3 2.2-1.8 4.1-3.8 5-2.1.8-4.5.5-6.3-.8-2.4-1.9-5.5-2-7.6-.3-2.2 1.8-4.3 3.8-6.1 6-1.8 2.1-1.7 5.2.2 7.4 1.5 1.8 1.8 4.2.9 6.3-.9 2.1-2.9 3.6-5.2 3.8-3 .3-5.2 2.4-5.5 5.1-.3 2.8-.3 5.6 0 8.5.3 2.7 2.5 4.7 5.6 5.1 2.3.3 4.2 1.7 5 3.8.9 2.1.5 4.4-.9 6.2-1.9 2.4-2 5.5-.3 7.5 1.8 2.2 3.9 4.2 6 6 2.1 1.7 5.2 1.6 7.5-.2 1.8-1.5 4.2-1.8 6.4-.9s3.6 2.9 3.9 5.1c.3 2.9 2.4 5.2 5.2 5.4 2.1.2 5.7.3 8.6 0 2.8-.3 4.8-2.5 5.2-5.5.3-2.2 1.8-4.1 3.8-5 2.1-.8 4.5-.5 6.3.8 2.5 1.9 5.5 2 7.6.3 2.2-1.8 4.3-3.8 6.1-6 1.8-2.1 1.7-5.2-.2-7.4-1.5-1.8-1.8-4.2-.9-6.3.9-2.1 2.9-3.6 5.2-3.8 3-.3 5.2-2.4 5.5-5.1.3-2.9.3-5.7 0-8.5zm-3.7 8.1c-.1 1.1-1.2 1.7-2.1 1.8-3.7.4-6.9 2.7-8.3 6.1s-.9 7.3 1.5 10.1c.6.7.9 1.9.2 2.7-1.7 2-3.5 3.8-5.6 5.5-.8.7-2.1.3-3-.4-2.8-2.2-6.7-2.7-10-1.3-3.3 1.4-5.7 4.4-6.1 7.9-.1 1.1-.8 2.2-1.9 2.3-2.6.3-5.3.3-7.8 0-1.1-.1-1.7-1.2-1.8-2.1-.4-3.6-2.9-6.9-6.2-8.2-2.4-.9-6.2-1.5-10.2 1.5-.8.6-1.9.9-2.8.2-2-1.6-3.8-3.5-5.5-5.5-.7-.8-.3-2.1.4-2.9 2.2-2.8 2.7-6.6 1.4-9.9-1.4-3.3-4.4-5.6-8-6-1.1-.1-2.2-.8-2.4-1.8-.3-2.6-.3-5.2 0-7.8.1-1.1 1.2-1.7 2.1-1.8 3.7-.4 6.9-2.7 8.3-6.1s.9-7.3-1.5-10.1c-.6-.8-.9-1.9-.2-2.7 1.7-2 3.5-3.8 5.6-5.5.9-.7 2.1-.3 3 .4 2.9 2.2 6.7 2.7 10 1.3 3.3-1.4 5.7-4.4 6.1-7.9.1-1.1.8-2.2 1.9-2.3 2.6-.3 5.3-.3 7.8 0 1.1.1 1.7 1.2 1.8 2.1.4 3.6 2.7 6.8 6.2 8.2 3.4 1.4 7.4.8 10.2-1.5.7-.6 1.9-.9 2.8-.2 2 1.6 3.9 3.5 5.5 5.5.7.8.3 2.1-.4 2.9-2.2 2.8-2.7 6.6-1.4 9.9 1.4 3.3 4.4 5.6 8 6 1.1.1 2.2.8 2.4 1.8.2 2.6.2 5.2 0 7.8z"/></g></g></svg>