<svg id="icons" xmlns="http://www.w3.org/2000/svg" viewBox="0 0 48 48"><title>24h-support-telephone</title><g id="_24h-support-telephone" data-name="24h-support-telephone"><path d="M29,2.13A14.8,14.8,0,0,0,16.13,18.7a15.18,15.18,0,0,0,3,7.05L17.93,32l5.14-2.7A16.27,16.27,0,0,0,33,31.38,14.81,14.81,0,0,0,45.87,14.81,15,15,0,0,0,29,2.13Z" fill="#fff"/><path d="M29,2.13A14.8,14.8,0,0,0,16.13,18.7a15.18,15.18,0,0,0,3,7.05L17.93,32l5.14-2.7A16.27,16.27,0,0,0,33,31.38,14.81,14.81,0,0,0,45.87,14.81,15,15,0,0,0,29,2.13Z" fill="none" stroke="#423e5e" stroke-linecap="round" stroke-linejoin="round" stroke-width="2"/><path d="M23.28,45.31l2.13-2.14a2,2,0,0,0-.18-3l-3.35-2.6a2,2,0,0,0-2.47,0l-.74.59A2,2,0,0,1,16,38l-6-6a2,2,0,0,1-.15-2.67l.59-.74a2,2,0,0,0,0-2.48L7.87,22.77a2,2,0,0,0-3-.18L2.74,24.73c-1.47,1.47-1.46,5.6,6.74,13.82S21.92,46.66,23.28,45.31Z" fill="#ffd259"/><path d="M23.28,45.31l2.13-2.14a2,2,0,0,0-.18-3l-3.35-2.6a2,2,0,0,0-2.47,0l-.74.59A2,2,0,0,1,16,38l-6-6a2,2,0,0,1-.15-2.67l.59-.74a2,2,0,0,0,0-2.48L7.87,22.77a2,2,0,0,0-3-.18L2.74,24.73c-1.47,1.47-1.46,5.6,6.74,13.82S21.92,46.66,23.28,45.31Z" fill="none" stroke="#423e5e" stroke-linecap="round" stroke-linejoin="round" stroke-width="2"/><path d="M29,22H23V20.13l3.08-2.77a17.21,17.21,0,0,0,1.84-1.77,4.2,4.2,0,0,0,.77-1.17A4.07,4.07,0,0,0,29,13a2.7,2.7,0,0,0-3-3,2.74,2.74,0,0,0-3,3m.75,7" fill="none" stroke="#60deae" stroke-linecap="round" stroke-linejoin="round" stroke-width="2"/><path d="M39,19H31l6-9V22" fill="none" stroke="#60deae" stroke-linecap="round" stroke-linejoin="round" stroke-width="2"/></g></svg>